<?xml version="1.0" standalone="no"?><!DOCTYPE svg PUBLIC "-//W3C//DTD SVG 1.1//EN" "http://www.w3.org/Graphics/SVG/1.1/DTD/svg11.dtd"><svg t="1518491088683" class="icon" style="" viewBox="0 0 1024 1024" version="1.1" xmlns="http://www.w3.org/2000/svg" p-id="4489" xmlns:xlink="http://www.w3.org/1999/xlink" width="23" height="23"><defs><style type="text/css"></style></defs><path d="M437.78048 143.36H297.90208a20.48 20.48 0 0 0 0 40.96h139.8784c39.07584 0 70.8608 32.11264 70.8608 71.68v5.3248a20.48 20.48 0 0 0 20.48 20.48h362.82368c39.03488 0 70.61504 31.9488 70.61504 71.92576V450.56a20.48 20.48 0 1 0 40.96 0V353.73056c0-62.50496-49.80736-112.88576-111.57504-112.88576h-343.32672a112.18944 112.18944 0 0 0-110.83776-97.4848zM962.56 532.48v282.54208c0 36.12672-31.21152 65.61792-70.8608 65.61792H383.54944a20.48 20.48 0 1 0 0 40.96H891.6992c61.76768 0 111.8208-47.3088 111.8208-106.57792V532.48a20.48 20.48 0 1 0-40.96 0zM297.90208 880.64H132.99712c-39.07584 0-71.55712-36.16768-71.55712-82.1248V655.36a20.48 20.48 0 1 0-40.96 0v143.1552c0 67.62496 49.80736 123.0848 112.51712 123.0848h164.90496a20.48 20.48 0 1 0 0-40.96zM61.44 614.4V248.95488c0-35.06176 32.52224-64.63488 72.82688-64.63488h120.832a20.48 20.48 0 0 0 0-40.96h-120.832C72.17152 143.36 20.48 190.34112 20.48 248.95488V614.4a20.48 20.48 0 1 0 40.96 0zM327.68 348.16v245.76a20.48 20.48 0 1 0 40.96 0v-245.76a20.48 20.48 0 0 0-40.96 0z" p-id="4490" fill="#bfbfbf"></path><path d="M225.28 491.52h245.76a20.48 20.48 0 1 0 0-40.96h-245.76a20.48 20.48 0 1 0 0 40.96z" p-id="4491" fill="#bfbfbf"></path></svg>